<?xml version="1.0" encoding="iso-8859-1"?>
<!DOCTYPE svg PUBLIC "-//W3C//DTD SVG 1.0//EN" "http://www.w3.org/TR/2001/REC-SVG-20010904/DTD/svg10.dtd">
<!-- Creator: CorelDRAW -->
<svg xmlns="http://www.w3.org/2000/svg" xmlns:odm="http://product.corel.com/CGS/11/cddns/" xml:space="preserve" width="578px" height="768px" style="shape-rendering:geometricPrecision; text-rendering:geometricPrecision; image-rendering:optimizeQuality; fill-rule:evenodd"
     viewBox="0 0 578 768">
 <defs>
  <style type="text/css">
   <![CDATA[
    .str1 {stroke:#000000;stroke-width:3}
    .str0 {stroke:#000000;stroke-width:3}
    .str3 {stroke:#E54762;stroke-width:5}
    .str2 {stroke:#000000;stroke-width:5;stroke-linecap:round}
    .fil2 {fill:none}
    .fil3 {fill:#000000}
    .fil0 {fill:#FFEEEE}
    .fil1 {fill:#E54762}
   ]]>
  </style>
 </defs>
 <g id="Layer 1">
  <path class="fil0" d="M328 33c22,42 41,85 60,132 16,20 39,38 62,57 30,34 64,89 70,106 14,44 28,87 25,131 -1,25 -11,50 -17,74 -6,22 -8,43 -18,64 -12,19 -34,36 -53,53 -23,16 -46,29 -75,39 -39,10 -61,-12 -56,-32 6,-22 29,-41 52,-60 21,-14 53,-28 63,-42 15,-23 16,-46 26,-68 3,-23 6,-58 5,-70 -13,-21 -27,-44 -41,-62 -18,-20 -20,-34 -54,-50 -31,-11 -65,-5 -94,-3 -25,5 -53,4 -74,16 -16,10 -28,44 -42,67 -12,26 -29,43 -35,82 -2,20 16,41 23,61 11,21 15,42 32,63 28,24 25,58 11,67 -18,18 -36,10 -54,-4 -20,-15 -33,-37 -40,-56 -18,-18 -32,-39 -39,-59 -9,-27 -6,-54 -1,-81 2,-26 3,-53 9,-78 9,-27 23,-45 36,-66 14,-21 21,-36 49,-62 11,-14 31,-17 49,-35 67,-74 -2,-122 0,-182l121 -2z"/>
  <path class="fil1 str0" d="M405 368c15,8 29,17 30,38 0,14 -8,21 -8,32 1,12 10,21 8,33 0,18 -18,27 -37,34 -7,-6 -15,-12 -22,-18 19,2 37,3 43,-17 3,-20 -17,-25 -12,-38 4,-8 10,-13 13,-22 0,-11 -7,-11 -11,-15 -3,-6 -2,-21 -4,-27z"/>
  <path class="fil1 str0" d="M341 411c-8,-6 -14,-16 -19,-35 -2,-33 -15,-34 -30,-35 -3,9 -4,19 -4,28 18,23 29,44 31,65 1,18 -5,27 -17,26 -8,-2 -9,-16 -34,-35 -19,-6 -35,-2 -44,12 -2,-5 -3,-11 -5,-17 13,-11 27,-15 43,-11 11,2 27,4 44,30 -1,-4 -1,-8 -2,-14 -7,-16 -17,-30 -27,-44 -19,-15 -22,-40 3,-56 11,-6 23,-6 38,6 12,8 20,18 18,31 3,14 6,21 9,26 10,12 17,25 35,35 11,8 32,-10 48,-10 23,6 35,42 15,61 -7,5 -27,11 -43,3 -29,-25 -43,-21 -46,2 1,5 2,11 2,16 -6,2 -13,4 -20,6 -5,-9 -7,-19 -6,-33 7,-14 19,-18 32,-20 33,-9 46,31 62,18 20,-1 23,-17 10,-28 -10,-5 -28,-2 -47,3 -21,-3 -34,-17 -46,-30z"/>
  <path class="fil1 str0" d="M290 735c-15,-65 -11,-121 30,-161 3,-3 5,-10 1,-18 -19,-62 17,-62 34,-65 4,6 14,12 22,17 -23,-1 -42,0 -46,22 0,7 10,17 12,33 -1,9 -6,18 -10,27 12,-14 32,-25 31,-46 0,-11 -11,-22 -18,-33 4,-2 12,-3 20,-3 11,15 19,32 10,48 13,-14 19,-34 6,-45 -19,-10 -36,-24 -37,-42 1,-52 13,-90 37,-104 24,-11 37,20 33,31 -8,25 -23,25 -41,13 1,-3 7,-14 9,-16 8,10 18,3 16,-2 -3,-5 -9,-4 -15,1 -9,14 -19,27 -19,62 1,21 11,32 25,38 19,14 29,39 13,61 -33,27 -71,53 -85,95 -2,36 3,63 13,85l-41 2z"/>
  <path class="fil1 str0" d="M256 475c1,-30 8,-59 -9,-91 -9,-17 -19,-23 -31,-7 -7,10 6,33 10,63 4,13 5,30 4,43l-25 -53c-7,-32 -7,-67 8,-76 23,-14 39,0 51,25 10,28 8,54 8,80 7,25 27,31 39,10 21,-52 28,-104 58,-93 -6,7 -10,15 -14,24 -10,3 -12,48 -31,79 -18,22 -43,29 -68,-4z"/>
  <path class="fil2 str0" d="M207 35c-2,60 67,108 0,182 -18,18 -38,21 -49,35 -28,26 -35,41 -49,62 -13,21 -27,39 -36,66 -6,25 -7,52 -9,78 -5,27 -8,54 1,81 7,20 21,41 39,59 7,19 20,41 40,56 18,14 36,22 54,4 14,-9 17,-43 -11,-67 -17,-21 -21,-42 -32,-63 -7,-20 -25,-41 -23,-61 6,-39 23,-56 35,-82 14,-23 26,-57 42,-67 21,-12 49,-11 74,-16 29,-2 63,-8 94,3 34,16 36,30 54,50 14,18 28,41 41,62 1,12 -2,47 -5,70 -10,22 -11,45 -26,68 -10,14 -42,28 -63,42 -23,19 -46,38 -52,60 -5,20 17,42 56,32 29,-10 52,-23 75,-39 19,-17 41,-34 53,-53 10,-21 12,-42 18,-64 6,-24 16,-49 17,-74 3,-44 -11,-87 -25,-131 -6,-17 -40,-72 -70,-106 -23,-19 -46,-37 -62,-57 -19,-47 -38,-90 -60,-132l-24 5c2,13 6,23 16,25 -3,14 1,24 12,27 0,11 3,20 13,26 -2,13 2,23 15,23 -2,12 -1,22 6,30 5,3 9,7 13,10 7,0 13,1 19,1 14,38 46,68 91,95 1,39 20,79 48,118 -9,39 -11,87 -11,141 -24,38 -37,77 -71,115 -23,17 -95,28 -120,31 -11,-10 -10,-21 -4,-32 24,-26 70,-39 113,-92 35,-39 51,-84 29,-141 -17,-60 -50,-96 -98,-113 -23,-10 -50,-17 -85,-17 -33,3 -56,18 -82,31 -22,17 -45,35 -58,62 -10,30 -14,60 -19,89 -4,51 15,90 55,124 21,22 31,46 11,67 -14,19 -62,-40 -91,-61 -22,-45 -40,-112 -39,-140 16,-39 30,-105 45,-142 23,-38 81,-57 100,-95 16,-7 28,-15 26,-25 8,-2 11,-11 10,-27 9,-8 15,-17 5,-30 9,-7 9,-15 -2,-24 9,-7 7,-16 -4,-25 4,-8 3,-16 -9,-24 3,-9 2,-18 -5,-27l-26 -3z"/>
  <path class="fil1 str0" d="M194 736c5,-42 12,-85 29,-126 7,-17 4,-31 -6,-42 -28,-44 -84,-82 -45,-149 8,-14 34,-5 38,8 8,43 22,57 43,47 22,-15 24,-46 22,-83 -3,-66 31,-73 47,-74 33,-6 61,21 66,46 -6,0 -13,6 -19,13 -5,-31 -19,-42 -43,-42 -23,0 -36,11 -36,43 -1,23 -1,45 -2,68 -5,30 -30,47 -59,46 -13,-1 -25,-14 -32,-54 -3,-15 -23,-7 -21,25 0,25 14,48 31,70 -7,-21 -2,-38 7,-50 4,5 8,8 15,9 -13,8 -17,23 -10,40 7,14 18,28 23,42 13,-14 25,-24 37,-30 16,-9 10,-23 -8,-28 -17,1 -33,-6 -48,-20 2,-2 4,-4 6,-4 5,0 11,-1 15,-2 0,11 55,12 59,29 7,16 2,27 -9,36 -54,34 -72,101 -76,182 -8,0 -16,0 -24,0z"/>
  <path class="fil2 str1" d="M238 66c-10,0 -17,3 -24,6"/>
  <path class="fil2 str1" d="M247 89c-10,0 -18,3 -24,6"/>
  <path class="fil2 str1" d="M252 114c-5,0 -13,3 -20,7"/>
  <path class="fil2 str1" d="M253 138c-5,1 -12,4 -17,7"/>
  <path class="fil2 str1" d="M248 168c-4,-1 -8,1 -14,5"/>
  <path class="fil2 str1" d="M238 194c-2,4 -8,3 -15,2"/>
  <path class="fil2 str1" d="M213 219c-2,-1 -4,-2 -6,-1"/>
  <path class="fil2 str1" d="M320 63c7,-1 13,-4 19,-7"/>
  <path class="fil2 str1" d="M332 89c8,0 14,-4 18,-10"/>
  <path class="fil2 str1" d="M345 116c8,-2 14,-5 17,-10"/>
  <path class="fil2 str1" d="M360 139c5,-2 9,-4 14,-7"/>
  <path class="fil2 str1" d="M367 170c6,-3 14,-6 18,-11"/>
  <circle class="fil3" cx="324" cy="47" r="5"/>
  <circle class="fil3" cx="336" cy="73" r="5"/>
  <circle class="fil3" cx="350" cy="99" r="5"/>
  <circle class="fil3" cx="360" cy="124" r="4"/>
  <circle class="fil3" cx="372" cy="151" r="3"/>
  <circle class="fil3" cx="383" cy="172" r="2"/>
  <circle class="fil3" cx="238" cy="185" r="2"/>
  <circle class="fil3" cx="225" cy="206" r="2"/>
  <circle class="fil3" cx="247" cy="154" r="3"/>
  <circle class="fil3" cx="247" cy="128" r="3"/>
  <circle class="fil3" cx="240" cy="103" r="3"/>
  <circle class="fil3" cx="226" cy="55" r="5"/>
  <circle class="fil3" cx="233" cy="80" r="4"/>
  <path class="fil2 str2" d="M155 266l17 -12"/>
  <path class="fil2 str2" d="M78 401l6 -21"/>
  <path class="fil2 str2" d="M72 522l7 29"/>
  <path class="fil2 str2" d="M291 293l-18 4"/>
  <path class="fil2 str2" d="M165 370l-9 20"/>
  <path class="fil2 str2" d="M146 524l7 18"/>
  <path class="fil2 str2" d="M139 636l14 14"/>
  <path class="fil2 str2" d="M432 344l9 13"/>
  <path class="fil2 str2" d="M477 477l-3 16"/>
  <path class="fil2 str2" d="M393 597l-16 11"/>
  <path class="fil2 str2" d="M371 684l22 -8"/>
  <path class="fil2 str2" d="M497 599l9 -15"/>
  <path class="fil2 str2" d="M536 469l2 -21"/>
  <path class="fil2 str2" d="M515 341l-11 -24"/>
  <path class="fil2 str2" d="M450 237l-16 -17"/>
  <path class="fil2 str2" d="M275 714c-4,-16 -6,-33 -5,-52"/>
  <path class="fil2 str2" d="M262 671l8 -9 7 10"/>
  <path class="fil2 str2" d="M239 666c-4,16 -6,34 -5,53"/>
  <path class="fil2 str2" d="M226 709l8 10 6 -10"/>
  <path class="fil2 str3" d="M196 736c7,1 14,0 21,0"/>
  <path class="fil2 str3" d="M291 734c6,-1 37,0 38,-1"/>
 </g>
</svg>
